<svg width="72.65px" height="88.39999999999999px" xmlns="http://www.w3.org/2000/svg" viewBox="213.675 30.800000000000004 72.65 88.39999999999999" style="background: rgba(0, 0, 0, 0);" preserveAspectRatio="xMidYMid"><defs><filter id="editing-hole" x="-100%" y="-100%" width="300%" height="300%"><feFlood flood-color="#000" result="black"></feFlood><feMorphology operator="dilate" radius="2" in="SourceGraphic" result="erode"></feMorphology><feGaussianBlur in="erode" stdDeviation="4" result="blur"></feGaussianBlur><feOffset in="blur" dx="2" dy="2" result="offset"></feOffset><feComposite operator="atop" in="offset" in2="black" result="merge"></feComposite><feComposite operator="in" in="merge" in2="SourceGraphic" result="inner-shadow"></feComposite></filter></defs><g filter="url(#editing-hole)"><g transform="translate(231.47882515192032, 89.62000179290771)"><path d="M4.39 0L-0.56 0L7.22-28.38L16.21-28.38L18.19-12.17L26.19-28.38L33.71-28.38L34.49-7.14L34.49-7.14Q34.66-2.92 36.72-1.63L36.72-1.63L36.72-1.63Q36.25-0.77 34.87 0.04L34.87 0.04L34.87 0.04Q33.50 0.86 31.67 0.86L31.67 0.86L31.67 0.86Q29.84 0.86 28.77 0.34L28.77 0.34L28.77 0.34Q27.69-0.17 27.09-1.03L27.09-1.03L27.09-1.03Q26.02-2.58 26.02-5.55L26.02-5.55L26.02-18.83L17.54 0L12.21 0L9.20-19.31L4.39 0Z" fill="#ccc"></path></g></g><style>text {
  font-size: 64px;
  font-family: Arial Black;
  dominant-baseline: central;
  text-anchor: middle;
}</style></svg>